<svg xmlns="http://www.w3.org/2000/svg" viewBox="0 0 400 250" width="400" height="250">
<rect width="400" height="250" fill="#fff"/>
<line x1="45" y1="125" x2="150" y2="40" stroke="#95a5a6" stroke-width="4"/>
<rect x="88" y="72" width="19" height="22" rx="10" fill="#fff" stroke="#aed6f1"/><text x="98" y="88" font-family="Verdana,Arial,sans-serif" font-size="14" font-weight="bold" fill="#1a5276" text-anchor="middle">4</text>
<line x1="45" y1="125" x2="150" y2="210" stroke="#95a5a6" stroke-width="4"/>
<rect x="88" y="156" width="19" height="22" rx="10" fill="#fff" stroke="#aed6f1"/><text x="98" y="172" font-family="Verdana,Arial,sans-serif" font-size="14" font-weight="bold" fill="#1a5276" text-anchor="middle">2</text>
<line x1="150" y1="40" x2="240" y2="40" stroke="#95a5a6" stroke-width="4"/>
<rect x="186" y="29" width="19" height="22" rx="10" fill="#fff" stroke="#aed6f1"/><text x="195" y="45" font-family="Verdana,Arial,sans-serif" font-size="14" font-weight="bold" fill="#1a5276" text-anchor="middle">3</text>
<line x1="150" y1="210" x2="240" y2="210" stroke="#95a5a6" stroke-width="4"/>
<rect x="186" y="199" width="19" height="22" rx="10" fill="#fff" stroke="#aed6f1"/><text x="195" y="215" font-family="Verdana,Arial,sans-serif" font-size="14" font-weight="bold" fill="#1a5276" text-anchor="middle">7</text>
<line x1="150" y1="40" x2="150" y2="210" stroke="#95a5a6" stroke-width="4"/>
<rect x="140" y="114" width="19" height="22" rx="10" fill="#fff" stroke="#aed6f1"/><text x="150" y="130" font-family="Verdana,Arial,sans-serif" font-size="14" font-weight="bold" fill="#1a5276" text-anchor="middle">1</text>
<line x1="240" y1="40" x2="240" y2="210" stroke="#95a5a6" stroke-width="4"/>
<rect x="230" y="114" width="19" height="22" rx="10" fill="#fff" stroke="#aed6f1"/><text x="240" y="130" font-family="Verdana,Arial,sans-serif" font-size="14" font-weight="bold" fill="#1a5276" text-anchor="middle">1</text>
<line x1="240" y1="40" x2="335" y2="125" stroke="#95a5a6" stroke-width="4"/>
<rect x="278" y="72" width="19" height="22" rx="10" fill="#fff" stroke="#aed6f1"/><text x="288" y="88" font-family="Verdana,Arial,sans-serif" font-size="14" font-weight="bold" fill="#1a5276" text-anchor="middle">5</text>
<line x1="240" y1="210" x2="335" y2="125" stroke="#95a5a6" stroke-width="4"/>
<rect x="278" y="156" width="19" height="22" rx="10" fill="#fff" stroke="#aed6f1"/><text x="288" y="172" font-family="Verdana,Arial,sans-serif" font-size="14" font-weight="bold" fill="#1a5276" text-anchor="middle">2</text>
<rect x="23.5" y="110" width="43" height="30" rx="12" fill="#fef5e7" stroke="#e67e22" stroke-width="2"/><text x="45" y="130" font-family="Verdana,Arial,sans-serif" font-size="14" font-weight="bold" fill="#2c3e50" text-anchor="middle">Nhà</text>
<rect x="137.5" y="25" width="25" height="30" rx="12" fill="#eaf2f8" stroke="#2e86de" stroke-width="2"/><text x="150" y="45" font-family="Verdana,Arial,sans-serif" font-size="14" font-weight="bold" fill="#2c3e50" text-anchor="middle">A</text>
<rect x="137.5" y="195" width="25" height="30" rx="12" fill="#eaf2f8" stroke="#2e86de" stroke-width="2"/><text x="150" y="215" font-family="Verdana,Arial,sans-serif" font-size="14" font-weight="bold" fill="#2c3e50" text-anchor="middle">B</text>
<rect x="227.5" y="25" width="25" height="30" rx="12" fill="#eaf2f8" stroke="#2e86de" stroke-width="2"/><text x="240" y="45" font-family="Verdana,Arial,sans-serif" font-size="14" font-weight="bold" fill="#2c3e50" text-anchor="middle">C</text>
<rect x="227.5" y="195" width="25" height="30" rx="12" fill="#eaf2f8" stroke="#2e86de" stroke-width="2"/><text x="240" y="215" font-family="Verdana,Arial,sans-serif" font-size="14" font-weight="bold" fill="#2c3e50" text-anchor="middle">D</text>
<rect x="286.5" y="110" width="97" height="30" rx="12" fill="#fef5e7" stroke="#e67e22" stroke-width="2"/><text x="335" y="130" font-family="Verdana,Arial,sans-serif" font-size="14" font-weight="bold" fill="#2c3e50" text-anchor="middle">Công viên</text>
</svg>